<svg xmlns="http://www.w3.org/2000/svg" xmlns:xlink="http://www.w3.org/1999/xlink" width="9.5045166015625" height="10.5" viewBox="0 0 9.5045166015625 10.5" fill="none"><g opacity="1"  transform="translate(0 0.5)  rotate(0)"><path id="矩形 8" fill-rule="evenodd" style="fill:#A6A6A6" opacity="1" d="M2 10L5 10C6.1 10 6.99999 9.1 6.99999 8L6.99999 4C6.99999 2.9 6.1 2 5 2L2 2C0.899999 2 0 2.9 0 4L0 8C0 9.1 0.899999 10 2 10Z"></path><path  id="矩形 8" style="fill:#A6A6A6; opacity:1;" d="M4.45453,7.42h2.55c0.82842,0 1.49999,-0.67157 1.49999,-1.5v-3.92c0,-0.82843 -0.67157,-1.5 -1.49999,-1.5h-2.55c-0.82843,0 -1.5,0.67157 -1.5,1.5v3.92c0,0.82843 0.67157,1.5 1.5,1.5zM4.45453,8.42c-1.38071,0 -2.5,-1.11929 -2.5,-2.5v-3.92c0,-1.38071 1.11929,-2.5 2.5,-2.5h2.55c1.38071,0 2.49999,1.11929 2.49999,2.5v3.92c0,1.38071 -1.11929,2.5 -2.49999,2.5z"></path></g></svg>
