<svg xmlns="http://www.w3.org/2000/svg" xmlns:xlink="http://www.w3.org/1999/xlink" width="18" height="18" viewBox="0 0 18 18" fill="none"><g opacity="1"  transform="translate(1 1)  rotate(0)"><path  id="矩形 7" style="fill:#C4C4C4; opacity:1;" d="M1,11c0,2.2091 1.79086,4 4,4h7c1.6569,0 3,-1.3431 3,-3c0,-0.5523 0.4477,-1 1,-1c0.5523,0 1,0.4477 1,1c0,2.7614 -2.2386,5 -5,5h-7c-3.31371,0 -6,-2.6863 -6,-6v-7c0,-2.76142 2.23858,-5 5,-5c0.55228,0 1,0.44772 1,1c0,0.55229 -0.44772,1 -1,1c-1.65685,0 -3,1.34315 -3,3z"></path><path  id="直线 1" style="fill:#C4C4C4; opacity:1;" d="M5.75288,11.8329l8.53872,-8.53869c0.3905,-0.39053 1.0237,-0.39053 1.4142,0c0.3905,0.39052 0.3905,1.02368 0,1.41421l-8.5387,8.53868c-0.39053,0.3905 -1.02369,0.3905 -1.41422,0c-0.39052,-0.3905 -0.39052,-1.0237 0,-1.4142z"></path><path  id="直线 1" style="fill:#C4C4C4; opacity:1;" d="M15,10v-7c0,-0.55228 0.4477,-1 1,-1c0.5523,0 1,0.44772 1,1v7c0,0.5523 -0.4477,1 -1,1c-0.5523,0 -1,-0.4477 -1,-1z"></path><path  id="直线 1" style="fill:#C4C4C4; opacity:1;" d="M16,4h-7c-0.55228,0 -1,-0.44772 -1,-1c0,-0.55228 0.44772,-1 1,-1h7c0.5523,0 1,0.44772 1,1c0,0.55228 -0.4477,1 -1,1z"></path></g></svg>
