<svg width="16.000000" height="16.000000" viewBox="0 0 16 16" fill="none" xmlns="http://www.w3.org/2000/svg" xmlns:xlink="http://www.w3.org/1999/xlink">
	<desc>
			Created with Pixso.
	</desc>
	<defs>
		<clipPath id="clip7_6">
			<rect id="warn_fill" width="16.000000" height="16.000000" fill="white"/>
		</clipPath>
	</defs>
	<g clip-path="url(#clip7_6)">
		<path id="path" d="M14.729 12.0215L9.40799 2.4935C9.06201 1.87299 8.547 1.517 7.99701 1.517C7.4465 1.517 6.93201 1.87299 6.58499 2.49399L1.27051 12.021C0.926514 12.6375 0.89151 13.2625 1.17499 13.746C1.4585 14.2285 2.026 14.5 2.73251 14.5L13.2675 14.5C13.9735 14.5 14.5415 14.2285 14.8245 13.746C15.1085 13.2625 15.073 12.638 14.729 12.0215ZM7.5 5C7.5 4.724 7.724 4.5 8 4.5C8.276 4.5 8.5 4.724 8.5 5L8.5 9.5C8.5 9.77649 8.276 10 8 10C7.724 10 7.5 9.77649 7.5 9.5L7.5 5ZM8 13.002C7.58551 13.002 7.25 12.666 7.25 12.252C7.25 11.838 7.58551 11.502 8 11.502C8.41449 11.502 8.75 11.838 8.75 12.252C8.75 12.666 8.41449 13.002 8 13.002Z" fill-rule="nonzero" fill="#FFFFFF"/>
	</g>
</svg>
