<svg xmlns="http://www.w3.org/2000/svg" xmlns:xlink="http://www.w3.org/1999/xlink" width="48" height="48" viewBox="0 0 48 48" fill="none"><g opacity="1"  transform="translate(0 0)  rotate(0)"><path id="a" fill-rule="evenodd" style="fill:#FFFFFF" opacity="1" d="M12 48L36 48C42.63 48 48 42.63 48 36L48 12C48 5.37 42.63 0 36 0L12 0C5.37 0 0 5.37 0 12L0 36C0 42.63 5.37 48 12 48Z"></path><g opacity="1"  transform="translate(7 7)  rotate(0)"><path id="a" fill-rule="evenodd" style="fill:#597DFC" opacity="1" d="M17 34L17 34C26.39 34 34 26.39 34 17L34 17C34 7.61 26.39 0 17 0L17 0C7.61 0 0 7.61 0 17L0 17C0 26.39 7.61 34 17 34Z"></path><g opacity="1"  transform="translate(6.0009765625 10.623046875)  rotate(0)"><path id="3" fill-rule="evenodd" style="fill:#FFFFFF" opacity="1" d="M0 13L2.55 13L2.55 0L0 0L0 13Z"></path><path id="2" fill-rule="evenodd" style="fill:#FFFFFF" opacity="1" d="M4.27245 0L4.27245 2.6L9.13245 2.6C9.79245 2.6 10.3325 3.15 10.3325 3.82C10.3325 4.5 9.79245 5.04 9.13245 5.04L7.78245 5.04C5.66245 5.04 3.95245 6.79 3.95245 8.94L3.95245 13L12.5625 13L12.5625 10.4L6.50245 10.4L6.50245 8.94C6.50245 8.23 7.07245 7.64 7.78245 7.64L9.13245 7.64C11.2025 7.64 12.8825 5.93 12.8825 3.82C12.8825 1.71 11.2025 0 9.13245 0L4.27245 0Z"></path><path id="1" fill-rule="evenodd" style="fill:#FFFFFF" opacity="1" d="M14.0282 2.6L18.1982 2.6C18.8782 2.6 19.4182 3.03 19.4182 3.71L19.4182 4.02C19.4182 4.71 18.8782 5.2 18.1982 5.2L15.3082 5.2L15.3082 7.8L18.1982 7.8C18.8782 7.8 19.4182 8.29 19.4182 8.98L19.4182 9.29C19.4182 9.97 18.8782 10.4 18.1982 10.4L14.0282 10.4L14.0282 13L18.1982 13C20.2282 13 21.9982 11.34 21.9982 9.29L21.9982 8.98C21.9982 8.02 21.2282 7.16 20.6482 6.5C21.2282 5.84 21.9982 4.98 21.9982 4.02L21.9982 3.71C21.9982 1.66 20.2282 0 18.1982 0L14.0282 0L14.0282 2.6Z"></path></g></g></g></svg>
