<svg xmlns="http://www.w3.org/2000/svg" xmlns:xlink="http://www.w3.org/1999/xlink" width="48" height="48" viewBox="0 0 48 48" fill="none"><g opacity="1"  transform="translate(0 0)  rotate(0)"><path id="矩形 1" fill-rule="evenodd" style="fill:#FFFFFF" opacity="1" d="M12 48L36 48C42.63 48 48 42.63 48 36L48 12C48 5.37 42.63 0 36 0L12 0C5.37 0 0 5.37 0 12L0 36C0 42.63 5.37 48 12 48Z"></path><path id="并集" fill-rule="evenodd" style="fill:#017FFD" opacity="1" d="M32.5001 23.3193C33.2901 23.3193 34.0701 23.5093 34.7601 23.8793C35.4501 24.2393 36.0301 24.7593 36.4501 25.4093C36.8701 26.0293 37.1201 26.7593 37.1701 27.5093C37.2301 28.2593 37.0901 29.0093 36.7701 29.6793C36.4501 30.3793 35.9501 30.9793 35.3301 31.4293C34.7001 31.8893 33.9601 32.1893 33.1801 32.2893C32.4001 32.4093 31.6001 32.3293 30.8501 32.0493C30.1201 31.7893 29.4701 31.3493 28.9501 30.7793L28.9501 30.7793C28.9501 30.7793 28.9501 30.7793 28.9501 30.7793C28.9501 30.7693 28.9501 30.7693 28.9501 30.7693L28.9401 30.7693C27.8101 29.6593 19.8201 21.1393 16.5301 20.6893C14.9901 20.3793 13.3901 20.5393 11.9301 21.1493C10.4701 21.7493 9.22006 22.7793 8.34006 24.0893C7.47006 25.3993 7.00006 26.9493 7.00006 28.5193C7.00006 30.0993 7.47006 31.6493 8.34006 32.9593C9.22006 34.2693 10.4701 35.2893 11.9201 35.8993C13.3901 36.5093 14.9901 36.6693 16.5401 36.3493C18.0501 36.0593 19.4501 35.3193 20.5501 34.2393C20.9401 33.8893 21.1801 33.3893 21.1801 32.8193C21.1801 31.7693 20.3301 30.9093 19.2701 30.9093C18.7401 30.9093 18.2701 31.1193 17.9201 31.4693L17.9201 31.4693C17.3401 32.0593 16.6001 32.4493 15.7901 32.6093C14.9801 32.7693 14.1401 32.6893 13.3901 32.3693C12.6301 32.0593 11.9801 31.5293 11.5201 30.8393C11.0601 30.1493 10.8201 29.3493 10.8201 28.5193C10.8201 27.6993 11.0601 26.8993 11.5201 26.2093C11.9801 25.5193 12.6301 24.9893 13.3801 24.6693C14.1401 24.3593 14.9801 24.2793 15.8001 24.4393C16.6001 24.5993 17.3401 24.9893 17.9201 25.5793L26.1101 33.3193L26.1101 33.3193C27.0501 34.3693 28.2301 35.1693 29.5601 35.6493C30.8801 36.1293 32.3101 36.2693 33.7101 36.0793C35.1101 35.8793 36.4501 35.3393 37.5801 34.5093C38.7201 33.6793 39.6301 32.5793 40.2301 31.2993C40.8201 30.0293 41.0801 28.6293 40.9801 27.2293C40.8701 25.8293 40.4101 24.4793 39.6401 23.2993C38.8601 22.1193 37.8001 21.1693 36.5501 20.4993C35.8301 20.1193 35.0501 19.8393 34.2601 19.6793C33.9901 18.1593 33.3701 16.7293 32.4401 15.4893C31.1701 13.7693 29.3801 12.5193 27.3301 11.9193C25.2801 11.3093 23.1001 11.3793 21.1001 12.1193C19.1001 12.8593 17.3901 14.2293 16.2301 16.0193C16.0301 16.3193 15.9201 16.6693 15.9201 17.0593C15.9201 18.1093 16.7701 18.9593 17.8301 18.9593C18.5201 18.9593 19.1201 18.5993 19.4601 18.0493C20.1701 16.9693 21.2101 16.1493 22.4201 15.6993C23.6501 15.2493 24.9901 15.2093 26.2501 15.5793C27.5001 15.9493 28.6001 16.7193 29.3901 17.7693C30.1701 18.8193 30.5901 20.0993 30.5901 21.4093C30.5901 22.4593 31.4501 23.3193 32.5001 23.3193Z"></path></g></svg>
