<svg width="1em" height="1em" viewBox="0 0 24 24" fill="none" xmlns="http://www.w3.org/2000/svg"><path fill-rule="evenodd" clip-rule="evenodd" d="M3.292 3.867A2.304 2.304 0 001.24 6.399l1.204 11.458a2.304 2.304 0 002.533 2.051l4.102-.431 3.464 2.805c.247.2.61.162.81-.085l2.805-3.464 4.287-.45a2.304 2.304 0 002.051-2.533L21.293 4.292A2.304 2.304 0 0018.76 2.24L3.292 3.867z" fill="#6A6F7F"></path><path fill-rule="evenodd" clip-rule="evenodd" d="M11.46 8.569c-.553.058-.953.567-.893 1.136.06.57-.34 1.079-.895 1.137-.553.058-1.05-.356-1.11-.926-.18-1.708 1.02-3.235 2.682-3.41 1.661-.174 3.153 1.07 3.333 2.778.092.875-.265 1.584-.584 2.051a6.07 6.07 0 01-.476.6l-.155.173a2.832 2.832 0 00-.122.14l-.596.756a.989.989 0 01-1.418.15 1.058 1.058 0 01-.153-1.459l.596-.757c.074-.094.185-.217.274-.316l.08-.09c.117-.131.225-.261.318-.396.193-.282.247-.485.23-.641-.06-.57-.556-.984-1.11-.926z" fill="#fff"></path><circle cx="12.057" cy="15.158" r="1.2" transform="rotate(-6 12.057 15.158)" fill="#fff"></circle></svg>
