<svg xmlns="http://www.w3.org/2000/svg" xmlns:xlink="http://www.w3.org/1999/xlink" width="48" height="48" viewBox="0 0 48 48" fill="none"><g opacity="1"  transform="translate(0 0)  rotate(0)"><path id="矩形 1" fill-rule="evenodd" style="fill:#FFFFFF" opacity="1" d="M12 48L36 48C42.63 48 48 42.63 48 36L48 12C48 5.37 42.63 0 36 0L12 0C5.37 0 0 5.37 0 12L0 36C0 42.63 5.37 48 12 48Z"></path><g opacity="1"  transform="translate(7 7)  rotate(0)"><path id="圆形 2" fill-rule="evenodd" style="fill:#9061FF" opacity="1" d="M17 0C7.61 0 0 7.61 0 17C0 26.39 7.61 34 17 34C26.39 34 34 26.39 34 17C34 7.61 26.39 0 17 0Z"></path></g></g></svg>
