<svg xmlns="http://www.w3.org/2000/svg" xmlns:xlink="http://www.w3.org/1999/xlink" width="48" height="48" viewBox="0 0 48 48" fill="none"><g opacity="1"  transform="translate(0 0)  rotate(0)"><mask id="bg-mask-0" fill="white"><use transform="translate(0 0)  rotate(0)" xlink:href="#path_0"></use></mask><g mask="url(#bg-mask-0)" ><path id="矩形 1" fill-rule="evenodd" style="fill:#FFFFFF" opacity="1" d="M10 48L38 48C43.52 48 48 43.52 48 38L48 10C48 4.48 43.52 0 38 0L10 0C4.48 0 0 4.48 0 10L0 38C0 43.52 4.48 48 10 48Z"></path><g opacity="1"  transform="translate(7 7)  rotate(0)"><path id="路径 2" fill-rule="evenodd" style="fill:#FF5A75" opacity="1" d="M17.1462 38.2058L17.1462 34.2858L11.2662 34.2858C10.1862 34.2858 9.30615 35.1658 9.30615 36.2458C9.30615 37.3258 10.1862 38.2058 11.2662 38.2058L17.1462 38.2058Z"></path><path id="路径 3" fill-rule="evenodd" style="fill:#24C0FF" opacity="1" d="M17.14,38.2v-3.91h5.88c1.08,0 1.96,0.87 1.96,1.95c0,1.09 -0.88,1.96 -1.96,1.96zM8.25,10.44c-0.04,-0.25 -0.07,-0.5 -0.09,-0.75c-0.02,-0.25 -0.03,-0.5 -0.03,-0.75c0,-4.93 4.03,-8.94 9.01,-8.94c4.97,0 9.01,4.01 9.01,8.94c0,0.5 -0.04,1 -0.13,1.5c4.57,0.02 8.27,3.71 8.27,8.25c0,4.56 -3.73,8.25 -8.32,8.25c-2.31,0 -4.41,-0.94 -5.92,-2.46c-0.02,-0.03 -0.04,-0.05 -0.07,-0.08c-0.02,-0.02 -0.04,-0.05 -0.06,-0.07c-0.02,-0.03 -0.04,-0.06 -0.06,-0.08c-0.02,-0.03 -0.04,-0.06 -0.06,-0.08c-0.02,-0.03 -0.04,-0.06 -0.05,-0.09c-0.02,-0.03 -0.04,-0.06 -0.05,-0.09c-0.02,-0.03 -0.03,-0.06 -0.05,-0.09c-0.01,-0.03 -0.02,-0.06 -0.04,-0.09c-0.01,-0.03 -0.02,-0.06 -0.03,-0.09c-0.01,-0.03 -0.02,-0.06 -0.03,-0.1c-0.01,-0.03 -0.02,-0.06 -0.03,-0.09c-0.01,-0.03 -0.02,-0.07 -0.02,-0.1c-0.01,-0.03 -0.01,-0.07 -0.02,-0.1c0,-0.03 -0.01,-0.06 -0.01,-0.1c0,-0.03 -0.01,-0.06 -0.01,-0.1c0,-0.03 0,-0.06 0,-0.1c0,-0.03 0,-0.06 0,-0.1c0.01,-0.03 0.01,-0.06 0.01,-0.1c0.01,-0.03 0.01,-0.06 0.01,-0.1c0.01,-0.03 0.02,-0.06 0.02,-0.1c0.01,-0.03 0.02,-0.06 0.02,-0.09c0.01,-0.04 0.02,-0.07 0.03,-0.1c0.01,-0.03 0.02,-0.06 0.03,-0.09c0.02,-0.04 0.03,-0.07 0.04,-0.1c0.01,-0.03 0.03,-0.06 0.04,-0.09c0.02,-0.03 0.03,-0.06 0.05,-0.09c0.01,-0.03 0.03,-0.06 0.05,-0.08c0.01,-0.03 0.03,-0.06 0.05,-0.09c0.02,-0.03 0.04,-0.05 0.06,-0.08c0.02,-0.03 0.04,-0.05 0.06,-0.08c0.02,-0.02 0.04,-0.05 0.07,-0.07c0.02,-0.03 0.04,-0.05 0.07,-0.07c0.02,-0.03 0.05,-0.05 0.07,-0.07c0.03,-0.03 0.05,-0.05 0.08,-0.07c0.02,-0.02 0.05,-0.04 0.08,-0.06c0.02,-0.02 0.05,-0.04 0.08,-0.06c0.03,-0.02 0.06,-0.04 0.09,-0.05c0.02,-0.02 0.05,-0.04 0.08,-0.05c0.03,-0.02 0.06,-0.03 0.09,-0.05c0.03,-0.01 0.07,-0.03 0.1,-0.04c0.03,-0.01 0.06,-0.02 0.09,-0.03c0.03,-0.02 0.06,-0.03 0.1,-0.04c0.03,-0.01 0.06,-0.01 0.09,-0.02c0.04,-0.01 0.07,-0.02 0.1,-0.02c0.04,-0.01 0.07,-0.02 0.1,-0.02c0.04,-0.01 0.07,-0.01 0.1,-0.01c0.04,-0.01 0.07,-0.01 0.1,-0.01c0.04,0 0.07,0 0.1,0c0.04,0 0.07,0 0.11,0c0.03,0 0.06,0 0.1,0.01c0.03,0 0.06,0 0.1,0.01c0.03,0 0.06,0.01 0.1,0.02c0.03,0 0.06,0.01 0.09,0.02c0.04,0.01 0.07,0.01 0.1,0.02c0.03,0.01 0.07,0.02 0.1,0.04c0.03,0.01 0.06,0.02 0.09,0.03c0.03,0.01 0.06,0.03 0.09,0.04c0.03,0.02 0.06,0.03 0.09,0.05c0.03,0.01 0.06,0.03 0.09,0.05c0.03,0.01 0.06,0.03 0.09,0.05c0.03,0.02 0.05,0.04 0.08,0.06c0.03,0.02 0.05,0.04 0.08,0.06c0.03,0.02 0.05,0.04 0.08,0.07c0.02,0.02 0.05,0.04 0.07,0.07c0.03,0.02 0.05,0.05 0.07,0.07c0.03,0.03 0.05,0.05 0.08,0.07c0.02,0.03 0.05,0.05 0.07,0.07c0.03,0.02 0.05,0.04 0.08,0.07c0.03,0.02 0.05,0.04 0.08,0.06c0.02,0.02 0.05,0.04 0.08,0.06c0.02,0.02 0.05,0.04 0.08,0.06c0.03,0.02 0.05,0.04 0.08,0.06c0.03,0.02 0.06,0.04 0.09,0.06c0.02,0.01 0.05,0.03 0.08,0.05c0.03,0.02 0.06,0.03 0.09,0.05c0.03,0.02 0.06,0.03 0.09,0.05c0.03,0.02 0.06,0.03 0.09,0.05c0.03,0.01 0.06,0.03 0.09,0.04c0.03,0.02 0.06,0.03 0.09,0.05c0.03,0.01 0.06,0.02 0.09,0.04c0.03,0.01 0.06,0.02 0.09,0.04c0.03,0.01 0.06,0.02 0.1,0.03c0.03,0.01 0.06,0.03 0.09,0.04c0.03,0.01 0.06,0.02 0.1,0.03c0.03,0.01 0.06,0.02 0.09,0.03c0.04,0.01 0.07,0.02 0.1,0.03c0.03,0 0.07,0.01 0.1,0.02c0.03,0.01 0.06,0.02 0.1,0.02c0.03,0.01 0.06,0.02 0.1,0.02c0.03,0.01 0.06,0.02 0.1,0.02c0.03,0.01 0.06,0.01 0.09,0.02c0.04,0 0.07,0.01 0.11,0.01c0.03,0 0.06,0.01 0.1,0.01c0.03,0 0.06,0.01 0.1,0.01c0.03,0 0.06,0 0.1,0c0.03,0.01 0.06,0.01 0.1,0.01c0.03,0 0.07,0 0.1,0c2.31,0 4.19,-1.86 4.19,-4.16c0,-2.3 -1.88,-4.16 -4.19,-4.16c-1.06,0 -2.03,0.39 -2.77,1.04v0l-0.08,0.06l-0.23,0.24l-0.16,0.16h0.01l-8.5,8.43v0c-0.05,0.05 -0.1,0.1 -0.15,0.15c-0.05,0.04 -0.1,0.09 -0.15,0.14c-0.05,0.04 -0.1,0.09 -0.15,0.13c-0.05,0.05 -0.11,0.09 -0.16,0.14c-0.05,0.04 -0.11,0.09 -0.16,0.13c-0.05,0.04 -0.11,0.08 -0.16,0.12c-0.06,0.05 -0.11,0.09 -0.17,0.13c-0.06,0.04 -0.11,0.08 -0.17,0.11c-0.06,0.04 -0.11,0.08 -0.17,0.12c-0.06,0.03 -0.12,0.07 -0.18,0.11c-0.06,0.03 -0.12,0.07 -0.18,0.1c-0.06,0.04 -0.12,0.07 -0.18,0.1c-0.06,0.03 -0.12,0.07 -0.18,0.1c-0.06,0.03 -0.12,0.06 -0.18,0.09c-0.07,0.03 -0.13,0.06 -0.19,0.08c-0.06,0.03 -0.13,0.06 -0.19,0.09c-0.06,0.02 -0.13,0.05 -0.19,0.07c-0.07,0.03 -0.13,0.05 -0.2,0.08c-0.06,0.02 -0.13,0.04 -0.19,0.06c-0.07,0.03 -0.13,0.05 -0.2,0.07c-0.06,0.02 -0.13,0.04 -0.2,0.05c-0.06,0.02 -0.13,0.04 -0.19,0.06c-0.07,0.01 -0.14,0.03 -0.21,0.05c-0.06,0.01 -0.13,0.02 -0.2,0.04c-0.06,0.01 -0.13,0.02 -0.2,0.04c-0.07,0.01 -0.14,0.02 -0.2,0.03c-0.07,0.01 -0.14,0.02 -0.21,0.03c-0.07,0 -0.14,0.01 -0.2,0.02c-0.07,0.01 -0.14,0.01 -0.21,0.02c-0.07,0 -0.14,0.01 -0.21,0.01c-0.06,0 -0.13,0 -0.2,0.01c-0.07,0 -0.14,0 -0.21,0c-4.59,0 -8.31,-3.69 -8.31,-8.25c0,-4.54 3.69,-8.22 8.25,-8.25zM8.31,14.53c-2.31,0 -4.19,1.86 -4.19,4.16c0,2.3 1.88,4.16 4.19,4.16c2.32,0 4.19,-1.86 4.19,-4.16c0,-2.3 -1.87,-4.16 -4.19,-4.16zM17.14,4.09c-2.7,0 -4.89,2.17 -4.89,4.85c0,2.68 2.19,4.85 4.89,4.85c2.7,0 4.88,-2.17 4.88,-4.85c0,-2.68 -2.18,-4.85 -4.88,-4.85z"></path><path id="路径 4" fill-rule="evenodd" style="fill:#FF5A75" opacity="1" d="M12.2777 9.45845C12.2877 9.37845 12.2877 9.30845 12.2877 9.22845C12.2877 8.08845 11.3577 7.15845 10.2077 7.15845C9.05769 7.15845 8.12769 8.08845 8.12769 9.22845C8.12769 9.31845 8.12769 9.39845 8.13769 9.48845C8.42769 14.1684 12.3477 17.8884 17.1377 17.8884C21.9277 17.8884 25.8477 14.1684 26.1277 9.48845C26.1377 9.39845 26.1477 9.31845 26.1477 9.22845C26.1477 8.08845 25.2177 7.15845 24.0677 7.15845C22.9177 7.15845 21.9877 8.08845 21.9877 9.22845C21.9877 9.30845 21.9877 9.37845 21.9977 9.45845C21.7377 11.8984 19.6577 13.7984 17.1377 13.7984C14.6077 13.7984 12.5377 11.8984 12.2777 9.45845Z"></path></g></g></g><defs><rect id="path_0" x="0" y="0" width="48" height="48" /></defs></svg>
