<svg xmlns="http://www.w3.org/2000/svg" xmlns:xlink="http://www.w3.org/1999/xlink" width="48" height="48" viewBox="0 0 48 48" fill="none"><g opacity="1"  transform="translate(0 0)  rotate(0)"><path id="矩形 1" fill-rule="evenodd" style="fill:#FFFFFF" opacity="1" d="M12 48L36 48C42.63 48 48 42.63 48 36L48 12C48 5.37 42.63 0 36 0L12 0C5.37 0 0 5.37 0 12L0 36C0 42.63 5.37 48 12 48Z"></path><path id="并集" fill-rule="evenodd" fill="url(#linear_0)" opacity="1" d="M15.81,19.16c-0.85,0 -1.66,0.1 -2.45,0.28c0.73,-5.33 5.22,-9.44 10.64,-9.44c5.42,0 9.91,4.11 10.64,9.44c-0.79,-0.18 -1.61,-0.28 -2.46,-0.28c-0.27,0 -0.55,0.01 -0.82,0.03c-0.79,-3.41 -3.79,-5.94 -7.36,-5.94c-3.57,0 -6.57,2.53 -7.36,5.94c-0.27,-0.02 -0.55,-0.03 -0.83,-0.03zM26.9,30.78c1.1,1.98 3,3.69 5.33,3.69c2.86,0 5.19,-2.38 5.19,-5.31c0,-2.93 -2.33,-5.31 -5.19,-5.31h-0.78c0,0 -1.67,0 -1.67,-1.69c0,-1.68 1.67,-1.65 1.67,-1.65h0.98c4.74,0 8.57,3.91 8.57,8.75c0,4.83 -3.83,8.74 -8.57,8.74h-16.86c-4.74,0 -8.57,-3.91 -8.57,-8.74c0,-4.84 4.04,-8.9 8.58,-8.9c4.55,0 7.37,2.45 9.74,7.42h-3.78c-1.12,-1.92 -3.18,-3.93 -5.67,-3.93c-2.98,0 -5.39,2.08 -5.39,5.12c0,3.03 2.41,5.5 5.39,5.5h9.45c0,0 -1.26,-1.5 -2.37,-3.69z"></path></g><defs><linearGradient id="linear_0" x1="50%" y1="100%" x2="51%" y2="0%" gradientUnits="objectBoundingBox"><stop offset="0" stop-color="#1176FF" stop-opacity="1" /><stop offset="0.6163" stop-color="#23CBFD" stop-opacity="1" /><stop offset="0.67" stop-color="#77E7F0" stop-opacity="1" /><stop offset="1" stop-color="#66E3EF" stop-opacity="1" /></linearGradient></defs></svg>
