<svg xmlns="http://www.w3.org/2000/svg" xmlns:xlink="http://www.w3.org/1999/xlink" width="48" height="48" viewBox="0 0 48 48" fill="none"><g opacity="1"  transform="translate(0 0)  rotate(0)"><path id="矩形 1" fill-rule="evenodd" style="fill:#FFFFFF" opacity="1" d="M12 48L36 48C42.63 48 48 42.63 48 36L48 12C48 5.37 42.63 0 36 0L12 0C5.37 0 0 5.37 0 12L0 36C0 42.63 5.37 48 12 48Z"></path><path id="路径 1" fill-rule="evenodd" style="fill:#383838" opacity="1" d="M24.5,34.14c-0.58,0 -1.16,-0.3 -1.76,-0.9c-0.24,-0.23 -0.24,-0.61 0,-0.85c0.24,-0.23 0.62,-0.23 0.86,0c0.37,0.37 0.66,0.55 0.9,0.55c0.24,0 0.54,-0.18 0.9,-0.55c0.24,-0.23 0.62,-0.23 0.86,0c0.24,0.24 0.24,0.62 0,0.85c-0.6,0.6 -1.18,0.9 -1.76,0.9zM9,24.91v0c0,-2.71 0.84,-5.03 2.52,-6.96c-0.1,-0.25 -0.18,-0.55 -0.26,-0.89c-0.08,-0.35 -0.15,-0.83 -0.21,-1.43c-0.07,-0.61 -0.04,-1.31 0.08,-2.11c0.12,-0.8 0.33,-1.62 0.65,-2.45c0.05,-0.02 0.13,-0.04 0.25,-0.06c0.11,-0.01 0.37,0 0.76,0.04c0.4,0.05 0.84,0.14 1.3,0.29c0.47,0.16 1.1,0.44 1.88,0.85c0.78,0.41 1.6,0.93 2.46,1.57c1.47,-0.44 3.5,-0.91 6.07,-0.91c2.57,0 4.59,0.47 6.05,0.91c0.87,-0.64 1.68,-1.16 2.46,-1.58c0.77,-0.42 1.41,-0.7 1.9,-0.84c0.49,-0.14 0.91,-0.23 1.28,-0.29c0.37,-0.05 0.63,-0.06 0.79,-0.03l0.24,0.05c0.31,0.83 0.53,1.65 0.64,2.45c0.11,0.8 0.14,1.5 0.07,2.12c-0.06,0.61 -0.13,1.08 -0.2,1.41c-0.07,0.34 -0.15,0.64 -0.25,0.9c1.68,1.94 2.52,4.26 2.52,6.96c0,1.5 -0.13,2.86 -0.4,4.09c-0.26,1.22 -0.62,2.28 -1.09,3.18c-0.47,0.89 -1.07,1.68 -1.79,2.36c-0.72,0.67 -1.5,1.23 -2.35,1.67c-0.84,0.44 -1.8,0.79 -2.89,1.06c-1.08,0.27 -2.18,0.46 -3.31,0.57c-1.12,0.11 -2.36,0.16 -3.7,0.16c-1.35,0 -2.58,-0.05 -3.7,-0.16c-1.12,-0.11 -2.22,-0.3 -3.3,-0.57c-1.08,-0.27 -2.04,-0.62 -2.88,-1.06c-0.84,-0.44 -1.62,-1 -2.34,-1.67c-0.71,-0.68 -1.3,-1.47 -1.77,-2.36c-0.47,-0.9 -0.83,-1.96 -1.09,-3.18c-0.26,-1.23 -0.39,-2.59 -0.39,-4.09zM13.46,31.08c0.21,0.8 0.48,1.47 0.81,2.02c0.33,0.54 0.79,1 1.38,1.37c0.6,0.37 1.17,0.66 1.72,0.87c0.56,0.2 1.27,0.36 2.15,0.48c0.88,0.11 1.66,0.18 2.35,0.21c0.69,0.02 1.56,0.03 2.62,0.03c1.05,0 1.92,-0.01 2.62,-0.03c0.69,-0.03 1.48,-0.1 2.36,-0.21c0.87,-0.12 1.59,-0.28 2.14,-0.48c0.56,-0.21 1.13,-0.5 1.72,-0.87c0.59,-0.37 1.06,-0.83 1.38,-1.37c0.33,-0.55 0.6,-1.22 0.82,-2.02c0.21,-0.8 0.32,-1.72 0.32,-2.74c0,-1.75 -0.64,-3.33 -1.94,-4.76c-0.38,-0.43 -0.84,-0.76 -1.35,-0.98c-0.52,-0.23 -1.1,-0.35 -1.75,-0.38c-0.65,-0.03 -1.28,-0.03 -1.87,0.01c-0.59,0.05 -1.32,0.1 -2.19,0.18c-0.88,0.07 -1.63,0.11 -2.26,0.11c-0.64,0 -1.39,-0.04 -2.26,-0.11c-0.88,-0.08 -1.61,-0.13 -2.2,-0.18c-0.59,-0.04 -1.21,-0.04 -1.87,-0.01c-0.65,0.03 -1.23,0.15 -1.74,0.38c-0.51,0.22 -0.96,0.55 -1.35,0.98c-1.29,1.43 -1.94,3.01 -1.94,4.76c0,1.02 0.11,1.94 0.33,2.74zM16.75,27.39c0,-1.59 0.87,-2.89 1.94,-2.89c1.07,0 1.94,1.3 1.94,2.89c0,1.6 -0.87,2.9 -1.94,2.9c-1.07,0 -1.94,-1.3 -1.94,-2.9zM28.38,27.39c0,-1.59 0.86,-2.89 1.93,-2.89c1.07,0 1.94,1.3 1.94,2.89c0,1.6 -0.87,2.9 -1.94,2.9c-1.07,0 -1.93,-1.3 -1.93,-2.9z"></path></g></svg>
