<svg xmlns="http://www.w3.org/2000/svg" width="48" height="48" viewBox="0 0 48 48" fill="none">
  <path fill-rule="evenodd" style="fill:#FFFFFF" d="M12 48L36 48C42.63 48 48 42.63 48 36L48 12C48 5.37 42.63 0 36 0L12 0C5.37 0 0 5.37 0 12L0 36C0 42.63 5.37 48 12 48Z"/>
  <g transform="translate(9 10)">
    <path fill-rule="evenodd" style="fill:#E60012" d="M15 0C6.72 0 0 6.72 0 15C0 23.28 6.72 30 15 30C23.28 30 30 23.28 30 15C30 6.72 23.28 0 15 0Z"/>
    <path fill-rule="evenodd" style="fill:#FFFFFF" d="M22.5 14H16.5V8C16.5 7.17 15.83 6.5 15 6.5C14.17 6.5 13.5 7.17 13.5 8V14H7.5C6.67 14 6 14.67 6 15.5C6 16.33 6.67 17 7.5 17H13.5V23C13.5 23.83 14.17 24.5 15 24.5C15.83 24.5 16.5 23.83 16.5 23V17H22.5C23.33 17 24 16.33 24 15.5C24 14.67 23.33 14 22.5 14Z"/>
  </g>
</svg>
