<svg xmlns="http://www.w3.org/2000/svg" xmlns:xlink="http://www.w3.org/1999/xlink" width="48" height="48" viewBox="0 0 48 48" fill="none"><g opacity="1"  transform="translate(0 0)  rotate(0)"><path id="矩形 1" fill-rule="evenodd" style="fill:#FFFFFF" opacity="1" d="M12 48L36 48C42.63 48 48 42.63 48 36L48 12C48 5.37 42.63 0 36 0L12 0C5.37 0 0 5.37 0 12L0 36C0 42.63 5.37 48 12 48Z"></path><g opacity="1"  transform="translate(7 8)  rotate(0)"><path id="圆形 1" fill-rule="evenodd" style="fill:#4A0D02" opacity="1" d="M16.91 2.67256C0.84 1.43256 -0.9 22.4926 0.31 26.9426C2.73 34.6326 28.27 35.2126 30.64 16.8326C30.64 8.94256 24.99 2.67256 16.91 2.67256Z"></path><path id="圆形 1" fill-rule="evenodd" fill="url(#linear_0)" opacity="1" d="M16.441 3.25612C2.27104 1.49612 -0.778957 21.5161 0.731043 26.3261C2.57104 33.2061 25.361 34.3061 29.431 16.7161C29.431 9.20612 21.051 4.66612 16.441 3.25612Z"></path><path id="交集" fill-rule="evenodd" style="fill:#AF6921" opacity="1" d="M23.6344 17.6862C23.6344 17.6862 23.5744 19.4062 19.2244 22.9662C11.9944 28.9362 2.72437 28.9362 2.72437 28.9362C2.76437 29.0062 2.81437 29.0662 2.86437 29.1262C8.06437 32.0462 19.2044 33.0562 25.6644 24.8262C26.1744 22.9262 25.7644 20.3162 23.6344 17.6862Z"></path><path id="圆形 1" fill-rule="evenodd" style="fill:#BC6F30" opacity="1" d="M29.7583 23.4489C30.7481 21.8104 30.7639 19.7286 30.763 17.8871C30.7607 16.0554 30.2117 14.1598 29.7585 12.2993C29.297 10.4273 28.4835 8.67313 27.3455 7.12199C26.2075 5.57086 24.7799 4.25846 23.1427 3.2578C21.5039 2.26702 19.6837 1.60242 17.786 1.31039C15.8883 1.01837 13.9528 1.10499 12.0829 1.55581C11.1357 1.79453 10.7611 2.06064 10.4981 2.19217C10.245 2.32523 10.1705 2.2834 10.174 3.44749C10.174 3.44749 13.7808 3.94182 20.3759 12.6563C26.9696 21.3807 26.1315 25.7238 26.1315 25.7238C27.704 26.4211 28.7571 25.0958 29.7583 23.4489Z"></path><path id="路径 1" fill-rule="evenodd" style="fill:#642D09" opacity="1" d="M23.728 17.6529C26.528 21.1129 26.048 23.3529 26.048 25.9329C29.658 25.4329 30.748 21.3329 30.408 17.1129C30.048 12.6329 28.528 7.8129 26.958 7.0929C26.958 12.5929 26.958 15.7829 23.728 17.6529Z"></path><path id="圆形 1 (轮廓)" fill-rule="evenodd" style="fill:#4F0800" opacity="1" d="M25.9655,26.0917l-0.2942,-0.1262l0.0584,-0.3148c0.1327,-0.6676 -0.0039,-1.6903 -0.3983,-3.0764c-0.8064,-2.8559 -2.5693,-6.0714 -5.2857,-9.6664c-2.7263,-3.5965 -5.221,-6.1962 -7.4857,-7.78919c-1.0951,-0.77558 -1.911,-1.19456 -2.4462,-1.2668c0,0 -0.27455,-0.12319 -0.33694,-0.24409c-0.60411,-1.07438 0.63184,-1.48113 0.63184,-1.48113c0.4636,-0.25242 1.1211,-0.51548 1.6684,-0.65384c1.914,-0.4744 3.9103,-0.56178 5.8673,-0.26062c1.9471,0.29963 3.8252,0.98324 5.5088,2.01128c1.6851,1.01815 3.1476,2.36628 4.3108,3.95164c1.1714,1.59675 1.9225,3.09845 2.3863,5.02135c0.0434,0.1787 0.1127,0.4524 0.1996,0.8098c0.5476,2.1685 0.8235,3.7995 0.8194,4.8814c0.0035,2.6818 -0.3514,4.6001 -1.0677,5.7748c-1.3568,2.2498 -2.7354,3.0596 -4.1361,2.4292zM29.5616,13.1986c-0.0868,-0.3573 -0.1561,-0.631 -0.1995,-0.8097c-0.4395,-1.818 -1.2408,-3.5197 -2.3438,-5.0351c-1.1046,-1.50551 -2.4888,-2.77077 -4.0796,-3.74406c-1.6007,-0.97481 -3.3746,-1.61203 -5.2229,-1.89645c-1.8383,-0.28291 -3.7214,-0.20845 -5.5404,0.2401c0,0 -2.63017,0.52608 -1.7624,1.26668c0.7498,0.38856 6.0188,3.56696 10.284,9.20123c2.7765,3.6649 4.5851,6.9786 5.4173,9.9295c0.3671,1.301 0.5234,2.3267 0.466,3.0969c0.8819,0.1863 1.8227,-0.539 2.827,-2.2057c0.6358,-1.0454 0.9498,-2.8284 0.9532,-5.3573c-0.0066,-1.0128 -0.2734,-2.5715 -0.7989,-4.6861z"></path><g opacity="1"  transform="translate(25.999053955078125 2.4515380859375)  rotate(0)"><path id="路径 1" fill-rule="evenodd" style="fill:#BA6E2F" opacity="1" d="M1.78671 5.54716C1.93279 4.92624 4.52913 3.03274 7.41426 4.70027C7.90448 4.98725 8.29727 0.61431 5.84398 0.432711C2.76241 0.204605 1.01416 2.29124 -0.231044 3.13161L1.78671 5.54716Z"></path><path id="路径 2" fill-rule="evenodd" style="fill:#652D0A" opacity="1" d="M7.39279 2.7494L5.67749 2.62243C4.52065 2.5368 3.35875 2.79172 2.33507 3.34767L0.924013 4.12563L1.58573 4.80633L2.52079 4.36415C3.60136 3.85252 4.81795 3.67184 6.00732 3.86015L7.29568 4.06582L7.39279 2.7494Z"></path><path  id="路径 1" style="fill:#4F0800; opacity:1;" d="M0.81333,5.31778M0.81333,5.31778c0.09541,-0.40555 0.39445,-0.80252 0.89711,-1.19091c0.44727,-0.34559 0.96281,-0.61566 1.5466,-0.81019c0.70429,-0.23468 1.42212,-0.32548 2.15347,-0.2724c0.86686,0.06291 1.70153,0.32628 2.50401,0.79009c-0.2957,-0.17311 -0.59497,-0.17512 -0.8978,-0.00601c-0.13278,0.07415 -0.23167,0.16806 -0.29666,0.28174c-0.00812,0.01419 -0.01419,0.02616 -0.0182,0.03591c0.00089,-0.00217 0.0025,-0.00699 0.00483,-0.01447c0.01045,-0.03364 0.02047,-0.07697 0.03007,-0.12998c0.06035,-0.33333 0.06214,-0.70823 0.00539,-1.12468c-0.1262,-0.92605 -0.4501,-1.40839 -0.97171,-1.447c-0.90384,-0.06691 -1.77095,0.10382 -2.60132,0.51217c-0.50653,0.2491 -1.16135,0.69835 -1.96446,1.34775c-0.39559,0.31988 -0.68764,0.54343 -0.87615,0.67065l-0.55953,-0.82896l0.76738,-0.641l2.01775,2.41554l-0.76738,0.641zM2.30203,7.72357l-4.01071,-4.8014l0.91814,-0.61964c0.14081,-0.09503 0.38663,-0.28439 0.73748,-0.56809c0.91911,-0.7432 1.69887,-1.27227 2.33928,-1.5872c1.15559,-0.56829 2.36605,-0.8056 3.63136,-0.71194c0.88067,0.06519 1.57932,0.46827 2.09594,1.20925c0.36691,0.52625 0.60367,1.1805 0.71027,1.96274c0.08531,0.62598 0.07895,1.20966 -0.01906,1.75105c-0.05481,0.30275 -0.13761,0.55102 -0.2484,0.7448c-0.11886,0.2079 -0.27361,0.36507 -0.46425,0.47152c-0.36274,0.20256 -0.72207,0.19965 -1.078,-0.00872c-0.99471,-0.57491 -2.00283,-0.69217 -3.02438,-0.35177c-0.3692,0.12303 -0.68795,0.28819 -0.95624,0.49549c-0.09419,0.07278 -0.16597,0.13858 -0.21534,0.19739c-0.00633,0.00754 -0.01136,0.0139 -0.01508,0.01909c0.0001,-0.00015 0.00113,-0.0019 0.00309,-0.00526c0.02235,-0.03831 0.04035,-0.08651 0.05402,-0.1446z"></path></g></g></g><defs><linearGradient id="linear_0" x1="7.367999999999999%" y1="26.712999999999997%" x2="67.373%" y2="83.372%" gradientUnits="objectBoundingBox"><stop offset="0" stop-color="#FCD88A" stop-opacity="1" /><stop offset="0.4078" stop-color="#F2C871" stop-opacity="1" /><stop offset="1" stop-color="#E3B555" stop-opacity="1" /></linearGradient></defs></svg>
