<svg xmlns="http://www.w3.org/2000/svg" xmlns:xlink="http://www.w3.org/1999/xlink" width="48" height="48" viewBox="0 0 48 48" fill="none"><g opacity="1"  transform="translate(0 0)  rotate(0)"><path id="矩形 1" fill-rule="evenodd" style="fill:#FFFFFF" opacity="1" d="M12 48L36 48C42.63 48 48 42.63 48 36L48 12C48 5.37 42.63 0 36 0L12 0C5.37 0 0 5.37 0 12L0 36C0 42.63 5.37 48 12 48Z"></path><g opacity="1"  transform="translate(7 14.40625)  rotate(0)"><mask id="mask-0" fill="white"><path d="M34 13.57C34 10.55 31.76 7.98 29.05 6.94C28.96 3.09 25.75 0 21.79 0C19.31 0 17.13 1.21 15.82 3.05C14.92 2.35 13.78 1.94 12.54 1.94C10.08 1.94 8.01 3.59 7.43 5.81C7.37 5.81 7.31 5.81 7.26 5.81C3.25 5.81 0 8.99 0 12.92C0 16.63 3.3 20.03 6.6 20L29.05 20C31.03 20 34 17.76 34 13.57Z"  ></path></mask><g mask="url(#mask-0)"><path id="并集" fill-rule="evenodd" style="fill:#CCCCCC" opacity="1" d="M34 13.57C34 10.55 31.76 7.98 29.05 6.94C28.96 3.09 25.75 0 21.79 0C19.31 0 17.13 1.21 15.82 3.05C14.92 2.35 13.78 1.94 12.54 1.94C10.08 1.94 8.01 3.59 7.43 5.81C7.37 5.81 7.31 5.81 7.26 5.81C3.25 5.81 0 8.99 0 12.92C0 16.63 3.3 20.03 6.6 20L29.05 20C31.03 20 34 17.76 34 13.57Z"></path></g><g mask="url(#mask-0)"><path id="矩形 1" fill-rule="evenodd" style="fill:#F64210" opacity="1" d="M0 20.022L5.94 20.022L5.94 4.52197L0 4.52197L0 20.022Z"></path></g><g mask="url(#mask-0)"><path id="矩形 1" fill-rule="evenodd" style="fill:#FFB442" opacity="1" d="M5.94177 20.022L14.5218 20.022L14.5218 -1.93799L5.94177 -1.93799L5.94177 20.022Z"></path></g><g mask="url(#mask-0)"><path id="矩形 1" fill-rule="evenodd" style="fill:#FFDB3F" opacity="1" d="M14.5243 20.022L21.7843 20.022L21.7843 -1.93799L14.5243 -1.93799L14.5243 20.022Z"></path></g><g mask="url(#mask-0)"><path id="矩形 1" fill-rule="evenodd" style="fill:#A8F656" opacity="1" d="M21.7864 20.022L28.3864 20.022L28.3864 -1.93799L21.7864 -1.93799L21.7864 20.022Z"></path></g><g mask="url(#mask-0)"><path id="矩形 1" fill-rule="evenodd" style="fill:#3CA2FF" opacity="1" d="M28.3884 20.022L34.3284 20.022L34.3284 -1.93799L28.3884 -1.93799L28.3884 20.022Z"></path></g></g></g></svg>
