<svg xmlns="http://www.w3.org/2000/svg" xmlns:xlink="http://www.w3.org/1999/xlink" width="48" height="48" viewBox="0 0 48 48" fill="none"><g opacity="1"  transform="translate(0 0)  rotate(0)"><path id="矩形 1" fill-rule="evenodd" style="fill:#FFFFFF" opacity="1" d="M12 48L36 48C42.63 48 48 42.63 48 36L48 12C48 5.37 42.63 0 36 0L12 0C5.37 0 0 5.37 0 12L0 36C0 42.63 5.37 48 12 48Z"></path><g opacity="1"  transform="translate(9 9)  rotate(0)"><path id="路径 1" fill-rule="evenodd" style="fill:#2196F3" opacity="1" d="M12.6986 0.969999L12.6986 16.43C12.6986 17.08 13.0286 17.4 13.6786 17.4L17.3286 17.4C17.9786 17.4 18.3086 17.08 18.3086 16.43L18.3086 0.969999C18.3086 0.32 17.9786 0 17.3286 0L13.6786 0C13.0286 0 12.6986 0.32 12.6986 0.969999Z"></path><path id="路径 2" fill-rule="evenodd" style="fill:#2196F3" opacity="1" d="M25.17,17.183l-8.67,8.5899c-0.55,0.52 -1.41,0.52 -1.96,0l-8.71,-8.5899c-0.4,-0.4 -0.52,-1 -0.3,-1.52c0.22,-0.53 0.73001,-0.87 1.31001,-0.88h17.32999c0.58,0.01 1.08,0.35 1.3,0.88c0.22,0.52 0.1,1.12 -0.3,1.52zM28.95,31.0029h-26.9c-1.16,-0.11 -2.05,-1.07 -2.05,-2.22c0,-1.15 0.89,-2.12 2.05,-2.22h26.9c1.16,0.11 2.05,1.07 2.05,2.22c0,1.15 -0.88,2.11 -2.05,2.22z"></path></g></g></svg>
