<svg xmlns="http://www.w3.org/2000/svg" xmlns:xlink="http://www.w3.org/1999/xlink" width="48" height="48" viewBox="0 0 48 48" fill="none"><g opacity="1"  transform="translate(0 0)  rotate(0)"><path id="矩形 1" fill-rule="evenodd" style="fill:#FFFFFF" opacity="1" d="M12 48L36 48C42.63 48 48 42.63 48 36L48 12C48 5.37 42.63 0 36 0L12 0C5.37 0 0 5.37 0 12L0 36C0 42.63 5.37 48 12 48Z"></path><path id="路径 1" fill-rule="evenodd" style="fill:#0177DD" opacity="1" d="M18.65,34.1943c-2,-0.5 -3.12,-2.07 -3.12,-4.42c0,-0.74 0.05,-1.1 0.24,-1.58c0.46,-1.18 1.69,-2.07 3.3,-2.4c0.8,-0.16 1.04,-0.34 1.04,-0.75c0,-0.12 0.1,-0.5 0.22,-0.84c0.52,-1.52 1.5,-2.79 2.55,-3.31c1.09,-0.54 1.65,-0.67 2.97,-0.66c1.89,0.01 2.82,0.41 4.14,1.78l0.72,0.75l0.64,-0.22c3.13,-1.07 6.26,0.76 6.51,3.81l0.07,0.84l0.61,0.22c1.76,0.63 2.59,1.94 2.44,3.87c-0.09,1.26 -0.69,2.27 -1.63,2.77l-0.45,0.24l-9.85,0.02c-7.58,0.01 -9.98,-0.02 -10.4,-0.12zM10.43,32.7943c-1.2,-0.3 -2.48,-1.41 -3.07,-2.68c-0.34,-0.72 -0.36,-0.83 -0.36,-2.1c0,-1.22 0.03,-1.41 0.3,-2.01c0.01,-0.04 0.03,-0.08 0.05,-0.12c0.02,-0.04 0.04,-0.08 0.06,-0.11c0.02,-0.04 0.04,-0.08 0.06,-0.12c0.02,-0.03 0.04,-0.07 0.06,-0.11c0.02,-0.03 0.04,-0.07 0.07,-0.11c0.02,-0.03 0.04,-0.07 0.07,-0.1c0.02,-0.04 0.04,-0.07 0.07,-0.11c0.02,-0.03 0.05,-0.07 0.07,-0.1c0.03,-0.04 0.05,-0.07 0.08,-0.1c0.03,-0.04 0.05,-0.07 0.08,-0.1c0.03,-0.03 0.06,-0.07 0.09,-0.1c0.02,-0.03 0.05,-0.06 0.08,-0.09c0.03,-0.03 0.06,-0.06 0.09,-0.09c0.03,-0.03 0.06,-0.06 0.09,-0.09c0.03,-0.03 0.07,-0.06 0.1,-0.09c0.03,-0.03 0.06,-0.05 0.09,-0.08c0.04,-0.03 0.07,-0.06 0.1,-0.08c0.04,-0.03 0.07,-0.06 0.1,-0.08c0.04,-0.03 0.07,-0.05 0.11,-0.08c0.03,-0.02 0.07,-0.05 0.1,-0.07c0.04,-0.02 0.07,-0.05 0.11,-0.07c0.04,-0.02 0.07,-0.04 0.11,-0.07c0.04,-0.02 0.07,-0.04 0.11,-0.06c0.04,-0.02 0.08,-0.04 0.11,-0.06c0.04,-0.02 0.08,-0.04 0.12,-0.06c0.04,-0.01 0.07,-0.03 0.11,-0.05c0.04,-0.02 0.08,-0.03 0.12,-0.05c0.04,-0.02 0.08,-0.03 0.12,-0.05c0.04,-0.01 0.08,-0.03 0.12,-0.04c0.04,-0.02 0.08,-0.03 0.12,-0.04c0.04,-0.02 0.08,-0.03 0.13,-0.04c0.04,-0.01 0.08,-0.02 0.12,-0.03c0.29,-0.08 0.56,-0.2 0.6,-0.27c0.04,-0.07 0.09,-0.47 0.11,-0.88c0.09,-2.54 1.68,-4.78 3.9,-5.5c1.21,-0.38 2.78,-0.42 4.08,0.13c0.42,0.17 0.37,0.21 1.25,-1c0.52,-0.71 1.5,-1.46 2.35,-1.91c0.93,-0.49 1.89,-0.71 3.04,-0.71c3.21,0.01 5.98,2.11 7,5.33c0.33,1.02 0.31,1.31 -0.07,1.32c-0.18,0.02 -0.36,0.05 -0.54,0.09c-0.18,0.03 -0.36,0.08 -0.53,0.13l-0.77,0.21l-0.7,-0.74c-1.97,-2.06 -5.19,-2.51 -7.92,-1.1c-0.07,0.04 -0.14,0.07 -0.2,0.11c-0.07,0.04 -0.13,0.07 -0.2,0.11c-0.06,0.04 -0.13,0.08 -0.19,0.12c-0.07,0.04 -0.13,0.09 -0.19,0.13c-0.06,0.04 -0.12,0.09 -0.18,0.13c-0.06,0.05 -0.12,0.1 -0.18,0.14c-0.06,0.05 -0.12,0.1 -0.18,0.15c-0.05,0.05 -0.11,0.1 -0.17,0.15c-0.05,0.05 -0.11,0.1 -0.16,0.16c-0.05,0.05 -0.11,0.1 -0.16,0.16c-0.05,0.05 -0.1,0.11 -0.15,0.16c-0.05,0.06 -0.1,0.12 -0.15,0.18c-0.05,0.05 -0.09,0.11 -0.14,0.17c-0.05,0.06 -0.09,0.12 -0.13,0.19c-0.05,0.06 -0.09,0.12 -0.13,0.18c-0.05,0.06 -0.09,0.13 -0.13,0.19c-0.47,0.75 -1.07,2.16 -1.07,2.51c0,0.24 -0.19,0.37 -1.01,0.65c-2.52,0.87 -4,2.87 -4,5.44c0,0.93 0.23,2.08 0.55,2.73c0.12,0.25 0.19,0.48 0.15,0.52c-0.1,0.1 -3.24,0.07 -3.68,-0.04z"></path></g></svg>
