<svg xmlns="http://www.w3.org/2000/svg" xmlns:xlink="http://www.w3.org/1999/xlink" width="48" height="48" viewBox="0 0 48 48" fill="none"><g opacity="1"  transform="translate(0 0)  rotate(0)"><path id="矩形 1" fill-rule="evenodd" style="fill:#FFFFFF" opacity="1" d="M12 48L36 48C42.63 48 48 42.63 48 36L48 12C48 5.37 42.63 0 36 0L12 0C5.37 0 0 5.37 0 12L0 36C0 42.63 5.37 48 12 48Z"></path><g opacity="1"  transform="translate(7 10)  rotate(0)"><path id="路径 1" fill-rule="evenodd" style="fill:#0D53FF" opacity="1" d="M30.08,12.66c2.35,1.47 3.92,4.07 3.92,7.04c0,4.41 -3.48,8.03 -7.85,8.29c-0.16,0.01 -0.32,0.01 -0.49,0.01h-17.32c-0.06,0 -0.11,0 -0.17,0c-4.52,-0.09 -8.17,-3.78 -8.17,-8.3c0,-3.37 2.02,-6.27 4.91,-7.57c0.21,-6.72 5.64,-12.13 12.58,-12.13c6.94,0 12.59,5.62 12.59,12.53zM8.46,24.09h9.02c-1.05,-1.14 -1.85,-2.37 -2.61,-3.54c-1.55,-2.37 -2.81,-4.3 -5.73,-5.17c-0.26,-0.05 -0.53,-0.08 -0.8,-0.08c-1.09,0 -2.08,0.39 -2.84,1.04c-1.07,0.89 -1.7,2.27 -1.56,3.78c0.22,2.28 2.22,3.97 4.52,3.97zM30.06,20.09c0.1,-1.12 -0.23,-2.17 -0.84,-2.99c-0.52,-0.69 -1.23,-1.23 -2.05,-1.53c-0.75,-0.27 -1.21,-1.05 -1.09,-1.84c0.05,-0.39 0.08,-0.79 0.08,-1.19c0,-0.39 -0.03,-0.76 -0.08,-1.13c-0.55,-4.23 -4.23,-7.5 -8.59,-7.5c-4.35,0 -7.97,3.22 -8.57,7.4c5.27,1.02 7.37,4.25 9.24,7.11c1.62,2.49 3.03,4.64 6.45,5.67h0.93c2.31,0 4.32,-1.72 4.52,-4.01z"></path></g></g></svg>
