<svg xmlns="http://www.w3.org/2000/svg" xmlns:xlink="http://www.w3.org/1999/xlink" width="48" height="48" viewBox="0 0 48 48" fill="none"><g opacity="1"  transform="translate(0 0)  rotate(0)"><path id="矩形 1" fill-rule="evenodd" style="fill:#FFFFFF" opacity="1" d="M12 48L36 48C42.63 48 48 42.63 48 36L48 12C48 5.37 42.63 0 36 0L12 0C5.37 0 0 5.37 0 12L0 36C0 42.63 5.37 48 12 48Z"></path><g opacity="1"  transform="translate(8 14)  rotate(0)"><mask id="bg-mask-0" fill="white"><use transform="translate(0 0)  rotate(0)" xlink:href="#path_0"></use></mask><g mask="url(#bg-mask-0)" ><g opacity="1"  transform="translate(-0.000030517578125 -0.0001220703125)  rotate(0)"><g opacity="1"  transform="translate(0 0.0001220703125)  rotate(0)"><path id="路径 1" fill-rule="evenodd" style="fill:#C8E0FB" opacity="1" d="M7.20326 8.94704C7.27326 8.94704 7.34326 8.95716 7.41326 8.95716L9.10326 9.04831C9.41326 9.05844 10.0133 9.12933 10.1333 8.83564L10.7633 7.31658C11.4433 5.68612 12.7033 4.34934 14.4533 4.35947C15.7733 4.37972 16.8133 4.86582 17.9033 5.76713C18.9933 6.66844 19.7233 7.72166 19.7233 7.72166C19.9333 7.99509 20.2933 8.09636 20.6033 7.95458L21.5533 7.05327C21.7133 6.98238 21.8833 6.952 22.0533 6.952C22.6533 6.952 24.4933 8.19763 24.4933 8.19763L24.1233 10.142C24.1133 10.2737 24.2333 10.375 24.3633 10.3446C24.6033 10.3041 25.0333 10.3142 25.7933 10.456C27.3633 10.7497 28.5533 12.0257 28.7933 13.5954L31.9733 13.5954C31.7133 10.4458 29.3933 7.88369 26.3733 7.31658C25.9633 5.28103 24.1833 3.75184 22.0533 3.75184C21.4333 3.75184 20.8433 3.88349 20.3033 4.11642C18.9433 2.32392 16.8133 1.16943 14.4133 1.16943C11.3333 1.16943 8.69326 3.0632 7.57326 5.76713C7.45326 5.75701 7.32326 5.75701 7.20326 5.75701C3.42325 5.75701 0.323254 8.71412 0.0232544 12.4611L3.19325 12.4611C3.48325 10.4762 5.17325 8.94704 7.20326 8.94704Z"></path><path id="路径 2" fill-rule="evenodd" style="fill:#FF5878" opacity="1" d="M21.9056 14.9981C21.8256 14.8563 21.7456 14.7044 21.6756 14.5525C21.6356 14.4513 21.7156 14.3297 21.8256 14.3297L23.0156 14.3297C23.3156 14.3297 23.4856 13.9854 23.3056 13.7424L21.2356 10.9777L20.1756 9.54974C20.0256 9.35732 19.7356 9.35732 19.5956 9.54974L16.4556 13.7424C16.2756 13.9854 16.4456 14.3297 16.7456 14.3297L18.1956 14.3297C18.2756 14.3297 18.3356 14.3804 18.3556 14.4614C19.0056 17.6312 21.7956 20.011 25.1156 20.0009C26.0356 20.0009 26.9156 19.8085 27.7156 19.4743C25.1256 19.049 22.9656 17.3273 21.9056 14.9981Z"></path><path id="路径 3" fill-rule="evenodd" fill="url(#linear_0)" opacity="1" d="M26.38 6.14714C26.26 5.5699 26.03 5.04329 25.72 4.56732C24.93 3.37232 23.59 2.58241 22.06 2.58241C21.43 2.58241 20.84 2.71406 20.3 2.94698C18.95 1.15449 16.81 0 14.41 0C11.34 0 8.70003 1.89377 7.57003 4.5977C7.45003 4.58757 7.33003 4.58757 7.21003 4.58757C3.23003 4.58757 3.05176e-05 7.85862 3.05176e-05 11.8791C3.05176e-05 15.8995 3.21003 19.1605 7.18003 19.1807L16.4 19.1807C17.27 19.1807 17.98 18.4718 17.98 17.5908C17.98 17.1452 17.8 16.7502 17.52 16.4565C17.23 16.173 16.84 15.9907 16.4 15.9907L7.00003 15.9907L7.00003 15.9805C4.86003 15.8692 3.16003 14.1475 3.16003 11.8791C3.16003 9.62074 4.97003 7.77761 7.21003 7.77761C7.28003 7.77761 7.35003 7.78773 7.42003 7.78773L9.11003 7.87888C9.42003 7.889 9.70003 7.70672 9.83003 7.41303L10.46 5.89397C11.14 4.26351 12.71 3.17991 14.45 3.20016C15.77 3.21029 17.17 3.53435 17.98 4.5977C18.78 5.66104 19.5 6.14714 19.5 6.14714C19.5 6.14714 20.07 6.51172 20.39 6.38007L21.56 5.88384C21.71 5.81295 21.85 5.7927 22.06 5.78257C22.99 5.72181 23.7 6.19778 23.99 7.09909C24.19 7.68646 23.8 8.46625 23.53 8.92197C23.46 9.03337 23.56 9.16502 23.68 9.13464C24.14 8.99286 24.95 8.86121 25.8 9.28654C27.51 10.1473 28.84 11.1904 28.84 13.0133C28.84 15.0995 27.16 16.8008 25.1 16.8008C23.77 16.8008 22.57 16.0818 21.91 14.9982C22.97 17.3275 25.13 19.0491 27.72 19.4744C30.22 18.4313 31.99 15.9198 32 13.0234C32.01 9.60048 29.58 6.75477 26.38 6.14714Z"></path><path id="路径 3" fill-rule="evenodd" fill="url(#linear_1)" opacity="1" d="M26.38 6.14714C26.26 5.5699 26.03 5.04329 25.72 4.56732C24.93 3.37232 23.59 2.58241 22.06 2.58241C21.43 2.58241 20.84 2.71406 20.3 2.94698C18.95 1.15449 16.81 0 14.41 0C11.34 0 8.70003 1.89377 7.57003 4.5977C7.45003 4.58757 7.33003 4.58757 7.21003 4.58757C3.23003 4.58757 3.05176e-05 7.85862 3.05176e-05 11.8791C3.05176e-05 15.8995 3.21003 19.1605 7.18003 19.1807L16.4 19.1807C17.27 19.1807 17.98 18.4718 17.98 17.5908C17.98 17.1452 17.8 16.7502 17.52 16.4565C17.23 16.173 16.84 15.9907 16.4 15.9907L7.00003 15.9907L7.00003 15.9805C4.86003 15.8692 3.16003 14.1475 3.16003 11.8791C3.16003 9.62074 4.97003 7.77761 7.21003 7.77761C7.28003 7.77761 7.35003 7.78773 7.42003 7.78773L9.11003 7.87888C9.42003 7.889 9.70003 7.70672 9.83003 7.41303L10.46 5.89397C11.14 4.26351 12.71 3.17991 14.45 3.20016C15.77 3.21029 17.17 3.53435 17.98 4.5977C18.78 5.66104 19.5 6.14714 19.5 6.14714C19.5 6.14714 20.07 6.51172 20.39 6.38007L21.56 5.88384C21.71 5.81295 21.85 5.7927 22.06 5.78257C22.99 5.72181 23.7 6.19778 23.99 7.09909C24.19 7.68646 23.8 8.46625 23.53 8.92197C23.46 9.03337 23.56 9.16502 23.68 9.13464C24.14 8.99286 24.95 8.86121 25.8 9.28654C27.51 10.1473 28.84 11.1904 28.84 13.0133C28.84 15.0995 27.16 16.8008 25.1 16.8008C23.77 16.8008 22.57 16.0818 21.91 14.9982C22.97 17.3275 25.13 19.0491 27.72 19.4744C30.22 18.4313 31.99 15.9198 32 13.0234C32.01 9.60048 29.58 6.75477 26.38 6.14714Z"></path><path id="路径 3" fill-rule="evenodd" fill="url(#linear_2)" opacity="1" d="M26.38 6.14714C26.26 5.5699 26.03 5.04329 25.72 4.56732C24.93 3.37232 23.59 2.58241 22.06 2.58241C21.43 2.58241 20.84 2.71406 20.3 2.94698C18.95 1.15449 16.81 0 14.41 0C11.34 0 8.70003 1.89377 7.57003 4.5977C7.45003 4.58757 7.33003 4.58757 7.21003 4.58757C3.23003 4.58757 3.05176e-05 7.85862 3.05176e-05 11.8791C3.05176e-05 15.8995 3.21003 19.1605 7.18003 19.1807L16.4 19.1807C17.27 19.1807 17.98 18.4718 17.98 17.5908C17.98 17.1452 17.8 16.7502 17.52 16.4565C17.23 16.173 16.84 15.9907 16.4 15.9907L7.00003 15.9907L7.00003 15.9805C4.86003 15.8692 3.16003 14.1475 3.16003 11.8791C3.16003 9.62074 4.97003 7.77761 7.21003 7.77761C7.28003 7.77761 7.35003 7.78773 7.42003 7.78773L9.11003 7.87888C9.42003 7.889 9.70003 7.70672 9.83003 7.41303L10.46 5.89397C11.14 4.26351 12.71 3.17991 14.45 3.20016C15.77 3.21029 17.17 3.53435 17.98 4.5977C18.78 5.66104 19.5 6.14714 19.5 6.14714C19.5 6.14714 20.07 6.51172 20.39 6.38007L21.56 5.88384C21.71 5.81295 21.85 5.7927 22.06 5.78257C22.99 5.72181 23.7 6.19778 23.99 7.09909C24.19 7.68646 23.8 8.46625 23.53 8.92197C23.46 9.03337 23.56 9.16502 23.68 9.13464C24.14 8.99286 24.95 8.86121 25.8 9.28654C27.51 10.1473 28.84 11.1904 28.84 13.0133C28.84 15.0995 27.16 16.8008 25.1 16.8008C23.77 16.8008 22.57 16.0818 21.91 14.9982C22.97 17.3275 25.13 19.0491 27.72 19.4744C30.22 18.4313 31.99 15.9198 32 13.0234C32.01 9.60048 29.58 6.75477 26.38 6.14714Z"></path><path id="路径 3" fill-rule="evenodd" fill="url(#linear_3)" opacity="1" d="M26.38 6.14714C26.26 5.5699 26.03 5.04329 25.72 4.56732C24.93 3.37232 23.59 2.58241 22.06 2.58241C21.43 2.58241 20.84 2.71406 20.3 2.94698C18.95 1.15449 16.81 0 14.41 0C11.34 0 8.70003 1.89377 7.57003 4.5977C7.45003 4.58757 7.33003 4.58757 7.21003 4.58757C3.23003 4.58757 3.05176e-05 7.85862 3.05176e-05 11.8791C3.05176e-05 15.8995 3.21003 19.1605 7.18003 19.1807L16.4 19.1807C17.27 19.1807 17.98 18.4718 17.98 17.5908C17.98 17.1452 17.8 16.7502 17.52 16.4565C17.23 16.173 16.84 15.9907 16.4 15.9907L7.00003 15.9907L7.00003 15.9805C4.86003 15.8692 3.16003 14.1475 3.16003 11.8791C3.16003 9.62074 4.97003 7.77761 7.21003 7.77761C7.28003 7.77761 7.35003 7.78773 7.42003 7.78773L9.11003 7.87888C9.42003 7.889 9.70003 7.70672 9.83003 7.41303L10.46 5.89397C11.14 4.26351 12.71 3.17991 14.45 3.20016C15.77 3.21029 17.17 3.53435 17.98 4.5977C18.78 5.66104 19.5 6.14714 19.5 6.14714C19.5 6.14714 20.07 6.51172 20.39 6.38007L21.56 5.88384C21.71 5.81295 21.85 5.7927 22.06 5.78257C22.99 5.72181 23.7 6.19778 23.99 7.09909C24.19 7.68646 23.8 8.46625 23.53 8.92197C23.46 9.03337 23.56 9.16502 23.68 9.13464C24.14 8.99286 24.95 8.86121 25.8 9.28654C27.51 10.1473 28.84 11.1904 28.84 13.0133C28.84 15.0995 27.16 16.8008 25.1 16.8008C23.77 16.8008 22.57 16.0818 21.91 14.9982C22.97 17.3275 25.13 19.0491 27.72 19.4744C30.22 18.4313 31.99 15.9198 32 13.0234C32.01 9.60048 29.58 6.75477 26.38 6.14714Z"></path></g></g></g></g></g><defs><rect id="path_0" x="0" y="0" width="32" height="20" /><linearGradient id="linear_0" x1="0%" y1="50%" x2="100.00000000000003%" y2="50%" gradientUnits="objectBoundingBox"><stop offset="0" stop-color="#23C5FB" stop-opacity="1" /><stop offset="1" stop-color="#2878F8" stop-opacity="1" /></linearGradient><radialGradient id="linear_1" cx="78.68300000000002%" cy="95.91999999999999%" fx="78.68300000000002%" fy="95.91999999999999%" r="0.18340999999999996" gradientTransform="translate(0.7868300000000001 0.9591999999999999) scale(0.6009464263916017 1) rotate(270) scale(1 1.93) translate(-0.7868300000000001 -0.9591999999999999)" ><stop offset="0" stop-color="#A167B1" stop-opacity="1" /><stop offset="0.5787" stop-color="#5072E0" stop-opacity="0.33" /><stop offset="1" stop-color="#2878F8" stop-opacity="0" /></radialGradient><radialGradient id="linear_2" cx="76.48200000000001%" cy="87.45200000000001%" fx="76.48200000000001%" fy="87.45200000000001%" r="0.2506425554450002" gradientTransform="translate(0.7648200000000002 0.8745200000000001) scale(0.6009464263916017 1) rotate(45.2097689826482) scale(1 0.71) translate(-0.7648200000000002 -0.8745200000000001)" ><stop offset="0" stop-color="#AD63AA" stop-opacity="1" /><stop offset="1" stop-color="#2878F8" stop-opacity="0" /></radialGradient><linearGradient id="linear_3" x1="68.72300000000001%" y1="45.544000000000004%" x2="97.144%" y2="89.50500000000001%" gradientUnits="objectBoundingBox"><stop offset="0" stop-color="#2878F8" stop-opacity="0" /><stop offset="1" stop-color="#7A69C7" stop-opacity="1" /></linearGradient></defs></svg>
