<svg xmlns="http://www.w3.org/2000/svg" xmlns:xlink="http://www.w3.org/1999/xlink" width="48" height="48" viewBox="0 0 48 48" fill="none"><g opacity="1"  transform="translate(0 0)  rotate(0)"><path id="1" fill-rule="evenodd" style="fill:#FFFFFF" opacity="1" d="M12 48L36 48C42.63 48 48 42.63 48 36L48 12C48 5.37 42.63 0 36 0L12 0C5.37 0 0 5.37 0 12L0 36C0 42.63 5.37 48 12 48Z"></path><path id="2" fill-rule="evenodd" style="fill:#FF8D1A" opacity="1" d="M25.0799,25.4099c3.74,0 6.78,3.04 6.78,6.81c0,1.18 -0.3,2.29 -0.83,3.26c1.65,0.31 2.91,1.77 2.91,3.51l-8.95,0.01c-3.73,-0.05 -6.72,-3.07 -6.72,-6.78c0,-3.77 3.04,-6.81 6.81,-6.81zM18.7599,9.99988c4.02,0 7.4,2.70002 8.44,6.39002v0.02l-8.85,8.84c-1.8,1.74 -2.93,4.18 -2.95,6.89v0.08c0,2.38 0.87,4.57 2.3,6.25c-4.5,-1.73 -7.69996,-6.1 -7.69996,-11.21c0,-3.32 1.34996,-6.33 3.51996,-8.5h-3.51996c0,-4.84 3.91996,-8.76002 8.75996,-8.76002zM36.0599,29.5199c0.94,0 1.73,0.8 1.73,1.82c0,0.94 -0.79,1.73 -1.73,1.73c-1.02,0 -1.82,-0.79 -1.82,-1.73c0,-1.02 0.8,-1.82 1.82,-1.82zM34.2399,16.3199c0,0.47 -0.04,0.93 -0.13,1.37c2.86,1.08 4.89,3.84 4.89,7.07c0,0.91 -0.16,1.77 -0.45,2.57h-5.13c-1.68,-2.87 -4.78,-4.79 -8.33,-4.79l8.7,-8.7c0.29,0.77 0.45,1.61 0.45,2.48z"></path></g></svg>
