<svg xmlns="http://www.w3.org/2000/svg" xmlns:xlink="http://www.w3.org/1999/xlink" width="48" height="48" viewBox="0 0 48 48" fill="none"><g opacity="1"  transform="translate(0 0)  rotate(0)"><path id="矩形 1" fill-rule="evenodd" style="fill:#FFFFFF" opacity="1" d="M12 48L36 48C42.63 48 48 42.63 48 36L48 12C48 5.37 42.63 0 36 0L12 0C5.37 0 0 5.37 0 12L0 36C0 42.63 5.37 48 12 48Z"></path><g opacity="1"  transform="translate(6.999755859375 6.9998779296875)  rotate(0)"><path id="圆形 1" fill-rule="evenodd" style="fill:#2980FF" opacity="1" d="M17 0C7.61 0 0 7.61 0 17C0 26.39 7.61 34 17 34C26.39 34 34 26.39 34 17C34 7.61 26.39 0 17 0Z"></path><path id="并集" fill-rule="evenodd" style="fill:#F5F5F5" opacity="1" d="M14.9198,14.2661c1.66,2.15 1.41,4.76 -0.61,6.32c-1.25,0.94 -3.25,0.94 -4.65995,0l1.06995,-1.84v0c0.15,0.27 2.54,0.94 2.86,-0.79c0.55,-2.93 -2.71,-3.15 -2.71,-3.15c-2.60995,-0.19 -4.57995,1.9 -4.57995,4.47c0,0.91 0.26,1.65 0.7,2.47c2.38,3.12 4.85995,2.48 10.69995,2.48c5.83,-1.54 5.94,-5.54 5.94,-7.49c0,-1.96 -0.78,-3.78 -2.04,-5.15c-1.21,-1.3 -2.77,-1.95002 -4.45,-1.95002c-1.68,0 -3.42,0.64002 -4.63,1.95002c-0.3,0.31 -0.68,0.67 -0.86,1.14c1.93,-0.07 3.27,1.54 3.27,1.54zM17.1398,7.35608c4.45,0 6.96,3.19002 8.14,5.84002c4.69,1.95 4.69,6.22 4.69,6.22c0,3.84 -3.13,7.23 -6.97,7.23l-12.57,-0.01c-2.95995,0.01 -6.39995,-3.47 -6.39995,-7.06c0,-3.25 2.01,-6.42 5.34,-6.92c1.07995,-3.45002 4.15995,-5.30002 7.76995,-5.30002zM26.0198,16.2761c0.21,5.19 -3.22,7.95 -3.22,7.95c5.15,-0.4 4.79,-4.63 4.79,-4.63c0,-1.33 -0.61,-2.61 -1.57,-3.32z"></path></g></g></svg>
