<svg xmlns="http://www.w3.org/2000/svg" xmlns:xlink="http://www.w3.org/1999/xlink" width="48" height="48" viewBox="0 0 48 48" fill="none"><g opacity="1"  transform="translate(0 0)  rotate(0)"><path id="矩形 1" fill-rule="evenodd" style="fill:#FFFFFF" opacity="1" d="M12 48L36 48C42.63 48 48 42.63 48 36L48 12C48 5.37 42.63 0 36 0L12 0C5.37 0 0 5.37 0 12L0 36C0 42.63 5.37 48 12 48Z"></path><g opacity="1"  transform="translate(7.01422119140625 8)  rotate(0)"><path id="路径 2" fill-rule="evenodd" fill="url(#linear_0)" opacity="1" d="M24.091 14.1444C20.481 13.9044 18.771 17.7944 18.431 19.4844C18.911 19.8344 13.601 22.3944 20.021 20.6644C25.621 18.8244 27.801 18.7544 33.981 17.6444C32.101 16.6644 27.701 14.3844 24.091 14.1444Z"></path><path id="路径 1" fill-rule="evenodd" fill="url(#linear_1)" opacity="1" d="M6.48 6.03L0.26 4.16C0.26 4.16 0.1 4.15 0.02 4.23C-0.05 4.3 0.07 4.38 0.1 4.4C0.11 4.41 0.12 4.41 0.12 4.41C0.39 4.5 5.48 6.13 7.17 9.74C7.99 11.47 5.64 16.87 9.22 20.25C13.08 23.33 15.48 23.58 17.77 25.31C20.06 27.04 25.1 32 25.1 32C25.1 32 23.72 27.94 19.54 19.69C22.35 18.83 24.26 14.11 24.26 14.11L28.76 7.09C28.8 7.03 28.76 6.95 28.69 6.95C28.39 6.95 27.78 6.95 27.76 6.95C29.01 4.28 31.03 1.41 31.69 0.5C31.79 0.36 31.79 0.17 31.71 0.01C31.71 0.01 31.71 0 31.71 0C28.47 0.99 19.97 4.35 13.84 9.46C13.84 9.46 10.51 4.02 6.48 6.03Z"></path><path id="路径 1" style="fill:url(#linear_2); opacity:100" d="M6.4656,6.07788l-6.22,-1.87l0.0144,-0.04788l-0.00312,0.0499l0.00312,-0.0499l-0.00312,0.0499c-0.09165,-0.00573 -0.15883,0.01276 -0.20153,0.05546c-0.00872,0.00871 -0.00666,0.0211 0.00619,0.03716c0.01343,0.01679 0.0355,0.03541 0.06619,0.05588v0l0.00412,0.00274l0.0035,0.0035l-0.0035,-0.0035l0.0035,0.0035c-0.0031,-0.00309 -0.00821,-0.00464 -0.01536,-0.00464h0.00811l0.0077,0.00257l-0.0077,-0.00257l0.0077,0.00257c0.00292,0.00097 0.00857,0.00284 0.01695,0.00561c3.59402,1.1868 5.94819,2.97034 7.06252,5.35062c0.18568,0.39173 0.22081,1.31247 0.10538,2.7622c-0.29161,3.66267 0.35294,6.2402 1.93366,7.7326l-0.03432,0.0364l0.03119,-0.0391l-0.03119,0.0391l0.03119,-0.0391c1.49527,1.1932 3.33324,2.3086 5.51391,3.3462c1.38267,0.658 2.39433,1.229 3.035,1.713c1.52813,1.1544 3.97313,3.38583 7.335,6.6943v0l-0.0351,0.0356l-0.0473,0.0161l0.0473,-0.0161l-0.0473,0.0161c-0.91907,-2.70427 -2.7715,-6.80543 -5.5573,-12.3035l-0.0269,-0.053l0.0569,-0.0174l-0.0569,0.0174l0.0569,-0.0174c1.8572,-0.5684 3.41997,-2.41873 4.6883,-5.551v0l0.0017,-0.0043l4.5025,-7.02388c0.0096,-0.01441 0.0108,-0.02879 0.0036,-0.04316c-0.0066,-0.01324 -0.0171,-0.01986 -0.0315,-0.01986h-0.3836h-0.625l0.0333,-0.0712l-0.0333,0.0712l0.0333,-0.0712c0.90947,-1.94253 2.22107,-4.09525 3.9348,-6.45816c0.09213,-0.12896 0.0974,-0.27506 0.0158,-0.43828l-0.0053,-0.01056v-0.0218h0.05l0.0146,0.04782l-0.0146,-0.04782l0.0146,0.04782c-6.8574,2.09529 -12.80827,5.24549 -17.8526,9.45059l-0.0444,0.03705l-0.0302,-0.04936l0.0302,0.04936l-0.0302,-0.04936c-0.55213,-0.90195 -1.2715,-1.72074 -2.1581,-2.45637c-1.76495,-1.46446 -3.47727,-1.78279 -5.13698,-0.95499l-0.01774,0.00885zM6.4944,5.98212l-0.0144,0.04788l-0.02232,-0.04474c1.69858,-0.84719 3.44709,-0.52468 5.24552,0.96751c0.89507,0.74271 1.62153,1.56975 2.1794,2.48113l-0.0426,0.0261l0.0426,-0.0261l-0.0426,0.0261l-0.032,-0.03841c5.05473,-4.21371 11.0172,-7.37018 17.8874,-9.46941l0.0646,-0.01974l-0.0646,0.01974l0.0646,-0.01974v0.07756h-0.05l0.0447,-0.02236c0.0996,0.19913 0.09153,0.3797 -0.0242,0.54172c-1.71007,2.35777 -3.01847,4.50505 -3.9252,6.44184l-0.0453,-0.0212l0.0453,0.0212l-0.0453,-0.0212v-0.05h0.5464h0.3836c0.0556,0 0.09593,0.02505 0.121,0.07514c0.02447,0.04897 0.0215,0.09625 -0.0089,0.14184l-4.5,7.02002l-0.0421,-0.027l0.0463,0.0188v0c-1.2802,3.1616 -2.8641,5.03127 -4.7517,5.609l-0.0146,-0.0478l0.0146,0.0478l-0.0146,-0.0478l0.0446,-0.0226c2.78787,5.5022 4.6421,9.6077 5.5627,12.3165v0l-0.0824,0.0517v0c-3.35793,-3.3048 -5.7996,-5.53337 -7.325,-6.6857c-0.63527,-0.47993 -1.6412,-1.04743 -3.0178,-1.7025c-2.18753,-1.04087 -4.03196,-2.1603 -5.53328,-3.3583l-0.00163,-0.0013l0.00163,0.0013l-0.00163,-0.0013l-0.00152,-0.0014c-1.60397,-1.51433 -2.25887,-4.11877 -1.9647,-7.8133c0.11402,-1.432 0.08194,-2.33597 -0.09625,-2.7119c-1.10215,-2.35427 -3.43658,-4.12029 -7.00331,-5.29807c-0.00847,-0.00279 -0.01421,-0.00469 -0.01722,-0.0057l0.01581,-0.04743l-0.01581,0.04743l0.01581,-0.04743v0.05c-0.02047,0 -0.03893,-0.00821 -0.05535,-0.02464l0.03535,-0.03536l-0.03535,0.03536l0.03535,-0.03536l-0.02774,0.0416h0c-0.03931,-0.0262 -0.06891,-0.05174 -0.08881,-0.07662c-0.05012,-0.06265 -0.04972,-0.11943 0.00119,-0.17034c0.06397,-0.06397 0.1568,-0.09215 0.27847,-0.08454l0.00576,0.00036l-0.00576,-0.00036l0.00576,0.00036z"></path></g></g><defs><linearGradient id="linear_0" x1="7.739999999999999%" y1="32.937%" x2="76.134%" y2="84.125%" gradientUnits="objectBoundingBox"><stop offset="0" stop-color="#0056E0" stop-opacity="1" /><stop offset="1" stop-color="#128CFF" stop-opacity="1" /></linearGradient><linearGradient id="linear_1" x1="15.127026227254081%" y1="11.053%" x2="91.45017464652697%" y2="124.17800000000001%" gradientUnits="objectBoundingBox"><stop offset="0" stop-color="#2EA8FF" stop-opacity="1" /><stop offset="1" stop-color="#2478FF" stop-opacity="1" /></linearGradient><linearGradient id="linear_2" x1="0%" y1="50%" x2="100%" y2="50%" gradientUnits="objectBoundingBox"><stop offset="0" stop-color="#FFFFFF" stop-opacity="0" /><stop offset="1" stop-color="#FFFFFF" stop-opacity="0.59" /></linearGradient></defs></svg>
