<svg xmlns="http://www.w3.org/2000/svg" xmlns:xlink="http://www.w3.org/1999/xlink" width="48" height="48" viewBox="0 0 48 48" fill="none"><g opacity="1"  transform="translate(0 0)  rotate(0)"><path id="矩形 1" fill-rule="evenodd" style="fill:#FFFFFF" opacity="1" d="M12 48L36 48C42.63 48 48 42.63 48 36L48 12C48 5.37 42.63 0 36 0L12 0C5.37 0 0 5.37 0 12L0 36C0 42.63 5.37 48 12 48Z"></path><g opacity="1"  transform="translate(6.999786376953125 7)  rotate(0)"><path id="圆形 1" fill-rule="evenodd" style="fill:#FFFFFF" opacity="1" d="M16.9992 0.0985107C7.63922 0.0985107 0.0492249 7.68851 0.0492249 17.0485C0.0492249 26.4085 7.63922 33.9985 16.9992 33.9985C26.3592 33.9985 33.9492 26.4085 33.9492 17.0485C33.9492 7.68851 26.3592 0.0985107 16.9992 0.0985107Z"></path><path id="减去顶层" fill-rule="evenodd" style="fill:#5189FF" opacity="1" d="M0,17c0,-9.39 7.61,-17 17,-17c9.39,0 17,7.61 17,17c0,3.86 -1.29,7.42 -3.45,10.27l-12.52,-8.04l4.98,-5.31c0.03,-0.05 0,-0.12 -0.05,-0.12h-3.17c-0.09,0 -0.17,0.02 -0.24,0.09l-4.07,3.7l-4.42,-2.85c-0.05,-0.02 -0.12,-0.04 -0.19,-0.04l-1.82,-0.01c-0.07,-0.01 -0.1,0.08 -0.05,0.13l4.76,4.34l-5.76,5.25l1.53,3.92l6.58,-7.03l10.59,9.66c-2.76,1.92 -6.1,3.04 -9.7,3.04c-9.39,0 -17,-7.61 -17,-17zM16.82,2.89l-2.17,-0.43c-0.24,-0.05 -0.46,0.17 -0.41,0.41l0.78,3.79h2.37v-3.08c0,-0.34 -0.24,-0.64 -0.57,-0.69zM26.72,8.45l-22.72,1.4c-0.36,0.02 -0.66,0.33 -0.66,0.69v2h24.87v-2.68c0,-0.81 -0.68,-1.46 -1.49,-1.41z"></path></g></g></svg>
