<svg xmlns="http://www.w3.org/2000/svg" xmlns:xlink="http://www.w3.org/1999/xlink" width="48" height="48" viewBox="0 0 48 48" fill="none"><g opacity="1"  transform="translate(0 0)  rotate(0)"><path id="矩形 1" fill-rule="evenodd" style="fill:#FFFFFF" opacity="1" d="M12 48L36 48C42.63 48 48 42.63 48 36L48 12C48 5.37 42.63 0 36 0L12 0C5.37 0 0 5.37 0 12L0 36C0 42.63 5.37 48 12 48Z"></path><path id="并集" fill-rule="evenodd" style="fill:#0093FE" opacity="1" d="M35.48,9c-1.9,4.61 -7.25,4.72 -13.63,4.86c-3.63,0.08 -7.6,0.17 -11.45,1.09c3.91,-4.64 8.38,-4.51 13.32,-4.36c3.67,0.1 7.6,0.22 11.76,-1.59zM18.61,21.72c-4.59,0.04 -8.03,0.2 -11.61,0.88c7.05,-5.1 11.87,-4.93 17.72,-4.71l0.08,0.01c4.38,0.15 9.32,0.32 16.2,-1.67c-1.62,4.4 -8.08,5.02 -16.57,5.81c-1.44,0 -1.58,0.95 -8,7.72c-4.4,5.46 1.66,6.39 5.05,6.39c0.74,0 6.13,0 6.68,0c7.23,0 7.64,-7.74 2.22,-8.87c-2.34,-0.19 -3.7,1.33 -4.01,2.68c-0.37,1.62 1.26,3.13 3.86,1.02c1.35,1.38 -1.45,3.31 -3.86,2.81c-1.63,-0.34 -2.85,-2.03 -2.65,-4.74c0.43,-2.55 1.9,-4.76 6.51,-4.76c8.22,0 11.25,10.71 4.72,14.61c-3.79,1.84 -17.75,0.81 -19.53,0.81c-2.52,0 -7.18,-3.92 -4.62,-9.27c2.36,-3.87 9.17,-8.16 7.81,-8.72z"></path></g></svg>
